<?xml version="1.0" encoding="UTF-8" standalone="no"?>
<!-- Created with Inkscape (http://www.inkscape.org/) -->

<svg
   width="543.99994"
   height="543.99994"
   viewBox="0 0 143.93333 143.93332"
   version="1.1"
   id="svg1"
   xml:space="preserve"
   xmlns="http://www.w3.org/2000/svg"
   xmlns:svg="http://www.w3.org/2000/svg"><defs
     id="defs1" /><g
     id="layer1"
     transform="translate(-63.5,-63.5)"><g
       id="g1"
       transform="matrix(0.21502646,0,0,0.21502646,67.733333,67.733333)"><path
         id="rect1"
         style="fill:#ffffff"
         d="M 0,1.5501968e-6 V 1.5140549 L 1.6342163,1.5501968e-6 Z m 14.417152,0 L 303.19999,289.2707 h 39.8893 v 39.95659 l 50.8842,50.97072 c -0.77455,-5.03551 -1.17279,-10.39408 -1.17279,-16.10904 0,-44.4 33.82998,-78.19965 86.69998,-78.19965 37.64,0 64.69819,13.10188 84.19819,47.40188 l -46.09932,29.59854 c -10.15,-18.2 -21.09887,-25.3688 -38.09887,-25.3688 -17.34,0 -28.32962,10.9988 -28.32962,25.3688 0,17.76 10.99977,24.95036 36.39977,35.95036 l 14.79927,6.33979 c 50.3,21.57 78.69953,43.55893 78.69953,92.99893 0,21.03435 -6.51993,38.31624 -17.87064,51.53068 l 66.801,66.91395 V 1.5501968e-6 Z M 0,13.376542 V 629.99999 h 615.58283 l -67.06775,-67.18071 c -17.08173,11.74491 -39.80829,17.86102 -65.54409,17.86102 -54.98,0 -90.4999,-26.2005 -107.8799,-60.5405 l 48.10844,-27.94991 c 12.69,20.72 29.2016,35.95036 58.4016,35.95036 10.52071,0 19.4117,-2.25686 26.13545,-6.16917 L 343.08929,357.04501 v 134.32537 c 0,61.3 -35.93909,89.19937 -88.39909,89.19937 -47.4,0 -74.85004,-24.53073 -88.81004,-54.07573 l 48.19016,-29.17317 c 9.3,16.5 17.75886,30.4493 38.09886,30.4493 19.45,0 31.72062,-7.61005 31.72062,-37.20005 V 297.747 Z m 469.22194,442.197298 51.30959,51.3961 c 0.83562,-2.52371 1.26892,-5.21176 1.26892,-8.02929 0,-20.3 -16.10005,-27.4905 -43.10005,-39.3005 z m 160.77805,172.91209 -1.63422,1.51406 h 1.63422 z"
         transform="translate(1.5501968e-6)" /><rect
         style="fill:#ffffff;stroke-width:1.24873;stroke-linejoin:bevel;stroke-miterlimit:0"
         id="rect2"
         width="10.371015"
         x="-4.9953208"
         y="-22.667995"
         height="936.27594"
         transform="matrix(0.73381589,-0.67934839,0.70680505,0.70740838,0,0)" /></g></g></svg>
